<?xml version="1.0" encoding="UTF-8"?>
<!DOCTYPE svg PUBLIC "-//W3C//DTD SVG 1.1//EN" "http://www.w3.org/Graphics/SVG/1.1/DTD/svg11.dtd">
<!-- Creator: CorelDRAW -->
<svg xmlns="http://www.w3.org/2000/svg" xml:space="preserve" width="256.587mm" height="42.5146mm" style="shape-rendering:geometricPrecision; text-rendering:geometricPrecision; image-rendering:optimizeQuality; fill-rule:evenodd; clip-rule:evenodd"
viewBox="0 0 245.479 40.674"
 xmlns:xlink="http://www.w3.org/1999/xlink">
 <defs>
  <style type="text/css">
   <![CDATA[
    .fil0 {fill:#44749D;fill-rule:nonzero}
    .fil1 {fill:#F2AA46;fill-rule:nonzero}
   ]]>
  </style>
 </defs>
 <g id="Layer_x0020_1">
  <metadata id="CorelCorpID_0Corel-Layer"/>
  <g id="_198992688">
   <path id="_199085064" class="fil0" d="M21.6559 27.1985l-4.32355 0 0 -17.0467c0,-1.15226 -0.123798,-2.13317 -0.38096,-2.94264 -0.247596,-0.809469 -0.609422,-1.4761 -1.08557,-1.9999 -0.476248,-0.514325 -1.03812,-0.89519 -1.70466,-1.14279 -0.657162,-0.238124 -1.39995,-0.361922 -2.21898,-0.361922 -1.54278,0 -2.94264,0.419037 -4.20932,1.24755 -1.26658,0.819036 -2.3998,1.96182 -3.39975,3.40932l0 18.8371 -4.33311 0 0 -26.5033 3.3522 0 0.838075 3.68552 0.0857209 0c0.476153,-0.619085 1.00942,-1.19043 1.57129,-1.72379 0.571441,-0.523701 1.1999,-0.990382 1.89514,-1.39038 0.70471,-0.399999 1.46663,-0.714181 2.30461,-0.933267 0.838075,-0.228557 1.7523,-0.333316 2.73321,-0.333316 1.97129,0 3.60927,0.466681 4.91403,1.41899 1.30466,0.952306 2.30461,2.23793 3.00932,3.876l0.114326 0c1.1713,-1.65711 2.51413,-2.9522 4.01874,-3.89504 1.50471,-0.933267 3.26658,-1.39995 5.27595,-1.39995 0.923796,0 1.91418,0.123798 2.9522,0.390432 1.04759,0.257163 1.9999,0.733315 2.87605,1.42855 0.876152,0.70471 1.5999,1.66658 2.17125,2.89509 0.581008,1.22851 0.86668,2.80937 0.86668,4.74258l0 17.7418 -4.29504 0 0 -17.0467c0,-1.15226 -0.123798,-2.13317 -0.371393,-2.94264 -0.257163,-0.809469 -0.618989,-1.4761 -1.09514,-1.9999 -0.476153,-0.514325 -1.03803,-0.89519 -1.69519,-1.14279 -0.666633,-0.238124 -1.39995,-0.361922 -2.21889,-0.361922 -1.54278,0 -2.9522,0.419037 -4.22836,1.24755 -1.27615,0.819036 -2.41894,1.96182 -3.41889,3.40932l0 18.8371zm44.8071 -13.2278c0,-1.63807 -0.200047,-3.08557 -0.600046,-4.36172 -0.399903,-1.27605 -0.952306,-2.35225 -1.66658,-3.23788 -0.723748,-0.885719 -1.57129,-1.55226 -2.56168,-2.00947 -0.980911,-0.457114 -2.05711,-0.685671 -3.22841,-0.685671 -1.17139,0 -2.25706,0.228557 -3.23797,0.685671 -0.990382,0.45721 -1.83793,1.12375 -2.55221,2.00947 -0.714277,0.885623 -1.27615,1.96182 -1.67605,3.23788 -0.399999,1.27615 -0.600046,2.72365 -0.600046,4.36172 0,1.61894 0.200047,3.06644 0.600046,4.34259 0.399903,1.27615 0.961777,2.34269 1.68562,3.21884 0.723748,0.876152 1.58086,1.54278 2.57124,1.9999 0.980911,0.457114 2.05701,0.685671 3.23788,0.685671 1.17139,0 2.23802,-0.228557 3.21893,-0.685671 0.971344,-0.457114 1.81889,-1.12375 2.54264,-1.9999 0.714277,-0.876152 1.26668,-1.94269 1.66658,-3.21884 0.399999,-1.27615 0.600046,-2.72365 0.600046,-4.34259zm4.5235 0c0,2.08552 -0.29524,3.98066 -0.89519,5.69489 -0.590384,1.71423 -1.43803,3.17129 -2.5237,4.39023 -1.08557,1.21894 -2.3998,2.16177 -3.95215,2.83797 -1.54269,0.666633 -3.26648,0.999949 -5.18066,0.999949 -1.97129,0 -3.74264,-0.333316 -5.29489,-0.999949 -1.55235,-0.6762 -2.86648,-1.61903 -3.96172,-2.83797 -1.08567,-1.21894 -1.91418,-2.676 -2.49509,-4.39023 -0.571345,-1.71423 -0.866585,-3.60937 -0.866585,-5.69489 0,-2.09519 0.304711,-4.00937 0.89519,-5.71402 0.599951,-1.71413 1.43803,-3.18076 2.5236,-4.40927 1.08567,-1.22851 2.40946,-2.18081 3.96172,-2.84745 1.55226,-0.666633 3.28552,-0.999949 5.20927,-0.999949 1.95226,0 3.70456,0.333316 5.26638,0.999949 1.56182,0.666633 2.88552,1.61894 3.96163,2.84745 1.08567,1.22851 1.91418,2.69514 2.48562,4.40927 0.580912,1.70466 0.866585,3.61884 0.866585,5.71402zm21.3702 -9.76137l-0.333316 0c-1.02846,0 -2.02841,0.0951923 -3.01889,0.276201 -0.980911,0.190385 -1.90461,0.476153 -2.7712,0.857018 -0.86668,0.38096 -1.64754,0.847642 -2.34278,1.40952 -0.70471,0.552307 -1.28562,1.20937 -1.74274,1.98076l0 18.4657 -4.33311 0 0 -26.5033 3.3522 0 0.838075 4.20922 0.0857209 0c0.428509,-0.685671 0.952306,-1.3237 1.57129,-1.92365 0.628556,-0.590479 1.3237,-1.11428 2.10466,-1.56182 0.780864,-0.447643 1.63798,-0.799998 2.57124,-1.04759 0.933363,-0.247596 1.90471,-0.371393 2.93317,-0.371393 0.181009,0 0.371489,0 0.571441,0.00956706 0.19048,0.00947139 0.361922,0.0190385 0.51423,0.0380769l0 4.16167zm14.9801 -0.504758c-0.980911,0 -1.89514,0.199952 -2.74269,0.590479 -0.847546,0.390432 -1.59043,0.914229 -2.21889,1.59033 -0.638123,0.666633 -1.14279,1.45706 -1.53331,2.35225 -0.390432,0.904757 -0.638027,1.86663 -0.723748,2.88562l13.3898 0c0,-1.03812 -0.133365,-2.00947 -0.409566,-2.91413 -0.266634,-0.89519 -0.666633,-1.68562 -1.18086,-2.35225 -0.523797,-0.6762 -1.16182,-1.2 -1.92365,-1.58086 -0.761921,-0.38096 -1.64754,-0.571441 -2.65706,-0.571441zm2.37129 20.4274c1.43803,0 2.74269,-0.114231 3.92364,-0.352355 1.18086,-0.228557 2.36173,-0.561874 3.53312,-0.990382l0 3.5998c-0.952306,0.466586 -2.1237,0.828508 -3.52365,1.10471 -1.39038,0.266634 -2.88552,0.399999 -4.48542,0.399999 -1.89514,0 -3.67605,-0.238124 -5.34254,-0.723844 -1.66658,-0.485624 -3.12365,-1.26658 -4.37119,-2.34269 -1.24755,-1.0761 -2.22846,-2.48562 -2.94273,-4.22836 -0.714277,-1.73326 -1.0761,-3.83783 -1.0761,-6.29484 0,-2.40946 0.333316,-4.51403 1.00942,-6.28537 0.666633,-1.78091 1.56182,-3.25701 2.6761,-4.44744 1.11418,-1.19033 2.3998,-2.08552 3.84739,-2.68547 1.45706,-0.590479 2.97124,-0.885719 4.5521,-0.885719 1.48567,0 2.87605,0.238124 4.17124,0.733315 1.29509,0.495191 2.40937,1.26658 3.36167,2.33322 0.952306,1.05706 1.69519,2.42841 2.24749,4.09499 0.542835,1.67605 0.819036,3.68552 0.819036,6.02821 0,0.228557 0,0.419037 0,0.571441 0,0.161875 -0.00956706,0.523797 -0.0286055,1.0761l-18.1895 0c0,1.69519 0.257163,3.13312 0.771392,4.31408 0.504758,1.18086 1.20947,2.13317 2.08562,2.87605 0.885623,0.73322 1.92365,1.26658 3.11408,1.5999 1.19043,0.333316 2.47605,0.504663 3.84739,0.504663z"/>
   <path id="_199085136" class="fil1" d="M134.742 5.29499c-1.15235,0.0190385 -2.24749,0.304711 -3.29509,0.857113 -1.03803,0.542835 -1.96173,1.28562 -2.76172,2.21889l0 12.0469c0.276201,0.323845 0.618989,0.638027 1.00942,0.952306 0.390528,0.314278 0.828603,0.600046 1.30476,0.86668 0.485624,0.257067 1.01899,0.476153 1.60937,0.638027 0.581008,0.171442 1.19043,0.257163 1.82855,0.257163 1.01899,0 1.93322,-0.219086 2.73312,-0.657162 0.799998,-0.438076 1.46663,-1.05706 1.99043,-1.85697 0.533268,-0.799998 0.933267,-1.7523 1.21894,-2.85701 0.276201,-1.11428 0.419037,-2.34278 0.419037,-3.70456 0,-1.44759 -0.142836,-2.72365 -0.438076,-3.81888 -0.285673,-1.09514 -0.695239,-2.00937 -1.22851,-2.73312 -0.523797,-0.723844 -1.16182,-1.27615 -1.90471,-1.64754 -0.742787,-0.371393 -1.57129,-0.561874 -2.48552,-0.561874zm0.866585 23.1035c-1.45706,0 -2.77129,-0.26673 -3.95215,-0.790431 -1.18086,-0.533364 -2.16177,-1.19043 -2.94264,-1.97139l-0.114326 0c0.0190385,0.371393 0.0380769,0.89519 0.0571154,1.58086 0.0190385,0.6762 0.0286055,1.41899 0.0286055,2.21898l0 11.2375 -6.60912 0 0 -40.0074 5.79965 0 0.285673 3.03793 0.104759 0c0.819036,-1.0761 1.8761,-1.96173 3.15225,-2.65696 1.28562,-0.70471 2.7712,-1.04759 4.46638,-1.04759 1.46663,0 2.91413,0.276201 4.34259,0.819036 1.41899,0.552307 2.6761,1.39038 3.78081,2.5237 1.09514,1.14279 1.97129,2.57124 2.62836,4.30451 0.666633,1.7237 0.990478,3.78071 0.990478,6.16157 0,2.51413 -0.352355,4.68547 -1.05706,6.51393 -0.704806,1.82846 -1.63807,3.3522 -2.79033,4.5521 -1.15235,1.1999 -2.4285,2.08562 -3.83792,2.65696 -1.39995,0.580912 -2.84745,0.86668 -4.33311,0.86668zm33.9505 -22.4845l-0.552402 0c-2.02841,0 -3.80932,0.304807 -5.34254,0.904757 -1.53322,0.609422 -2.72365,1.53322 -3.56172,2.78076l0 18.1038 -6.60912 0 0 -27.0366 5.46633 0 0.618989 3.77124 0.104759 0c0.780959,-1.38091 1.85706,-2.46648 3.22841,-3.25692 1.36187,-0.790431 3.00932,-1.18096 4.9235,-1.18096 0.666633,0 1.24755,0.0381726 1.72379,0.114326l0 5.79965zm17.8371 17.1609c1.28562,0 2.61889,-0.133269 4.01874,-0.390432 1.39048,-0.266634 2.80937,-0.638027 4.23792,-1.12375l0 5.27595c-0.857113,0.371393 -2.17134,0.723748 -3.93312,1.06654 -1.77134,0.333316 -3.5998,0.495287 -5.49494,0.495287 -1.91418,0 -3.73316,-0.247691 -5.45686,-0.733315 -1.7237,-0.495191 -3.21884,-1.29519 -4.50446,-2.39033 -1.28572,-1.09524 -2.30471,-2.5237 -3.05706,-4.26643 -0.752258,-1.7523 -1.13322,-3.86643 -1.13322,-6.36162 0,-2.45692 0.352355,-4.59965 1.06663,-6.44724 0.70471,-1.83793 1.65702,-3.36167 2.84745,-4.57114 1.19043,-1.20947 2.55221,-2.11413 4.08542,-2.72365 1.53331,-0.599951 3.11417,-0.904757 4.75215,-0.904757 1.71423,0 3.28552,0.257163 4.73311,0.780959 1.43803,0.523797 2.68557,1.33327 3.73307,2.45701 1.05706,1.11418 1.8761,2.55221 2.45701,4.30451 0.590479,1.76177 0.885719,3.83783 0.885719,6.23773 -0.0191341,0.933267 -0.047644,1.7237 -0.0857209,2.37129l-17.7229 0c0.095288,1.24755 0.371489,2.31418 0.838075,3.1998 0.466681,0.876152 1.0761,1.5999 1.82846,2.14274 0.752354,0.552402 1.63807,0.952401 2.63793,1.2 0.999949,0.247596 2.09519,0.380865 3.26658,0.380865zm-2.65706 -17.9133c-0.828508,0 -1.58086,0.152403 -2.22846,0.457114 -0.647595,0.304807 -1.20947,0.723844 -1.68562,1.25711 -0.476153,0.533268 -0.857113,1.15235 -1.13322,1.85706 -0.276201,0.70471 -0.466681,1.45706 -0.552402,2.25697l10.6281 0c0,-0.799902 -0.104759,-1.55226 -0.323845,-2.25697 -0.209519,-0.70471 -0.533268,-1.32379 -0.942834,-1.85706 -0.418942,-0.533268 -0.942738,-0.952306 -1.57129,-1.25711 -0.618989,-0.304711 -1.3523,-0.457114 -2.19038,-0.457114zm29.9983 14.704c0,-0.580912 -0.161875,-1.05716 -0.495191,-1.42855 -0.323749,-0.371393 -0.752354,-0.676104 -1.29519,-0.933267 -0.533268,-0.247596 -1.15226,-0.466586 -1.85697,-0.657066 -0.695239,-0.181009 -1.42855,-0.371393 -2.19038,-0.552402 -0.961873,-0.266634 -1.89514,-0.561874 -2.79033,-0.904662 -0.885623,-0.352355 -1.67605,-0.799998 -2.35225,-1.36187 -0.676104,-0.552307 -1.21894,-1.25702 -1.61894,-2.10466 -0.399999,-0.847546 -0.599951,-1.88557 -0.599951,-3.10451 0,-1.51427 0.266634,-2.81894 0.809469,-3.92364 0.542835,-1.10471 1.26658,-2.01894 2.19038,-2.75225 0.9237,-0.723748 1.99033,-1.25702 3.20927,-1.61894 1.21904,-0.352355 2.50466,-0.523797 3.86643,-0.523797 1.64754,0 3.1999,0.133365 4.65696,0.399999 1.4475,0.276201 2.76172,0.618989 3.93312,1.04759l0 5.39018c-0.619085,-0.209519 -1.25711,-0.399999 -1.94278,-0.571441 -0.6762,-0.180913 -1.36187,-0.333316 -2.05701,-0.466586 -0.70471,-0.123798 -1.39038,-0.238124 -2.08562,-0.323845 -0.685671,-0.0761538 -1.33327,-0.123798 -1.95226,-0.123798 -0.780959,0 -1.43803,0.0761538 -1.98086,0.228557 -0.533268,0.142836 -0.971344,0.342884 -1.31423,0.599951 -0.333316,0.247596 -0.571345,0.533364 -0.723748,0.86668 -0.142836,0.323749 -0.21899,0.657066 -0.21899,1.00942 0,0.618989 0.161875,1.12375 0.485624,1.51418 0.323845,0.390528 0.780959,0.704806 1.3523,0.942834 0.580912,0.247596 1.18086,0.447643 1.81899,0.599951 0.628556,0.161875 1.24755,0.314278 1.83793,0.466681 0.933363,0.21899 1.85706,0.485624 2.79033,0.809469 0.933363,0.314278 1.77134,0.752354 2.51422,1.3237 0.742787,0.561874 1.3523,1.29519 1.82846,2.19995 0.466586,0.904662 0.70471,2.05701 0.70471,3.4474 0,1.52375 -0.285673,2.85701 -0.86668,3.99023 -0.571345,1.13331 -1.38081,2.07605 -2.40937,2.82841 -1.02846,0.752354 -2.26653,1.31423 -3.71403,1.67615 -1.43803,0.361826 -3.02845,0.542835 -4.75215,0.542835 -1.71413,0 -3.24744,-0.133365 -4.61879,-0.399999 -1.37134,-0.276201 -2.49509,-0.609518 -3.39028,-1.01899l0 -5.33306c1.4475,0.542835 2.79033,0.904757 4.01884,1.10471 1.22851,0.19048 2.37129,0.29524 3.42836,0.29524 0.819036,0 1.58086,-0.0666824 2.28557,-0.181009 0.714277,-0.123798 1.32379,-0.314182 1.82846,-0.571345 0.514325,-0.266634 0.923796,-0.590479 1.21904,-0.990382 0.29524,-0.399999 0.447547,-0.885719 0.447547,-1.43803zm24.2177 0c0,-0.580912 -0.161875,-1.05716 -0.495191,-1.42855 -0.323749,-0.371393 -0.752354,-0.676104 -1.29519,-0.933267 -0.533268,-0.247596 -1.15226,-0.466586 -1.85697,-0.657066 -0.695239,-0.181009 -1.42855,-0.371393 -2.19038,-0.552402 -0.961873,-0.266634 -1.89514,-0.561874 -2.79033,-0.904662 -0.885623,-0.352355 -1.67605,-0.799998 -2.35225,-1.36187 -0.676104,-0.552307 -1.21894,-1.25702 -1.61894,-2.10466 -0.399999,-0.847546 -0.599951,-1.88557 -0.599951,-3.10451 0,-1.51427 0.266634,-2.81894 0.809469,-3.92364 0.542835,-1.10471 1.26658,-2.01894 2.19038,-2.75225 0.9237,-0.723748 1.99033,-1.25702 3.20927,-1.61894 1.21904,-0.352355 2.50466,-0.523797 3.86643,-0.523797 1.64754,0 3.1999,0.133365 4.65696,0.399999 1.4475,0.276201 2.76172,0.618989 3.93312,1.04759l0 5.39018c-0.619085,-0.209519 -1.25711,-0.399999 -1.94278,-0.571441 -0.6762,-0.180913 -1.36187,-0.333316 -2.05701,-0.466586 -0.70471,-0.123798 -1.39038,-0.238124 -2.08562,-0.323845 -0.685671,-0.0761538 -1.33327,-0.123798 -1.95226,-0.123798 -0.780959,0 -1.43803,0.0761538 -1.98086,0.228557 -0.533268,0.142836 -0.971344,0.342884 -1.31423,0.599951 -0.333316,0.247596 -0.571345,0.533364 -0.723748,0.86668 -0.142836,0.323749 -0.21899,0.657066 -0.21899,1.00942 0,0.618989 0.161875,1.12375 0.485624,1.51418 0.323845,0.390528 0.780959,0.704806 1.3523,0.942834 0.580912,0.247596 1.18086,0.447643 1.81899,0.599951 0.628556,0.161875 1.24755,0.314278 1.83793,0.466681 0.933363,0.21899 1.85706,0.485624 2.79033,0.809469 0.933363,0.314278 1.77134,0.752354 2.51422,1.3237 0.742787,0.561874 1.3523,1.29519 1.82846,2.19995 0.466586,0.904662 0.70471,2.05701 0.70471,3.4474 0,1.52375 -0.285673,2.85701 -0.86668,3.99023 -0.571345,1.13331 -1.38081,2.07605 -2.40937,2.82841 -1.02846,0.752354 -2.26653,1.31423 -3.71403,1.67615 -1.43803,0.361826 -3.02845,0.542835 -4.75215,0.542835 -1.71413,0 -3.24744,-0.133365 -4.61879,-0.399999 -1.37134,-0.276201 -2.49509,-0.609518 -3.39028,-1.01899l0 -5.33306c1.4475,0.542835 2.79033,0.904757 4.01884,1.10471 1.22851,0.19048 2.37129,0.29524 3.42836,0.29524 0.819036,0 1.58086,-0.0666824 2.28557,-0.181009 0.714277,-0.123798 1.32379,-0.314182 1.82846,-0.571345 0.514325,-0.266634 0.923796,-0.590479 1.21904,-0.990382 0.29524,-0.399999 0.447547,-0.885719 0.447547,-1.43803z"/>
  </g>
 </g>
</svg>
