<?xml version="1.0" encoding="UTF-8"?>
<!DOCTYPE svg PUBLIC "-//W3C//DTD SVG 1.1//EN" "http://www.w3.org/Graphics/SVG/1.1/DTD/svg11.dtd">
<!-- Creator: CorelDRAW -->
<svg xmlns="http://www.w3.org/2000/svg" xml:space="preserve" width="168.54mm" height="66.9606mm" style="shape-rendering:geometricPrecision; text-rendering:geometricPrecision; image-rendering:optimizeQuality; fill-rule:evenodd; clip-rule:evenodd"
viewBox="0 0 151.211 60.0758"
 xmlns:xlink="http://www.w3.org/1999/xlink">
 <defs>
  <style type="text/css">
   <![CDATA[
    .str0 {stroke:#C2C1C1;stroke-width:0.179436}
    .fil1 {fill:none}
    .fil0 {fill:#44749D}
   ]]>
  </style>
 </defs>
 <g id="Layer_x0020_1">
  <metadata id="CorelCorpID_0Corel-Layer"/>
  <g id="_108802888">
   <path id="_108802960" class="fil0 str0" d="M0.567377 33.271c-0.859678,-8.31085 -1.31464,-21.6817 5.49604,-26.1045l8.63043 -5.60469c2.83303,-1.83985 6.92345,-2.13134 12.7648,0.13368 10.5507,4.46374 14.2028,30.8404 17.4492,40.9853 0.151444,0.508343 0.300197,0.996947 0.446527,1.46833 0.755606,-12.0566 0.773011,-26.889 1.8795,-28.733 0.271038,-0.372689 0.559033,-0.654224 0.86228,-0.851066l8.63043 -5.60469c3.99227,-2.59267 10.6285,9.4622 16.0037,20.8773 -0.81796,-6.66731 -0.723756,-12.2695 1.76771,-13.8875l8.63043 -5.6046c2.07841,-1.34981 5.82423,0.0721333 12.0979,5.95862 17.4491,15.826 24.3476,47.0722 55.1879,34.8983l-8.63043 5.6046c-30.8403,12.1739 -37.7387,-19.0723 -55.1879,-34.8983 -2.19459,-2.05912 -4.07966,-3.57123 -5.69234,-4.61025 -0.183563,12.1637 6.97531,35.1286 4.97298,36.4289l-8.63043 5.6046c-0.610352,0.396464 -2.07222,-1.2207 -4.85303,-5.77129 -1.7207,-2.58092 -10.3318,-25.0208 -17.5268,-34.8122 -0.598689,12.4702 -0.80827,33.5207 -3.83697,35.4876l-8.63043 5.6046c-1.36739,0.888119 -3.30952,-2.11474 -6.12155,-11.5553 -3.24636,-10.1448 -6.89851,-36.5214 -17.4492,-40.9852 -2.99936,-1.16302 -5.53713,-1.6518 -7.67996,-1.60326 -3.04153,5.99586 -2.6186,15.5104 -1.95038,21.9694l-8.63052 5.60469z"/>
  </g>
  <path class="fil1" d="M4.88255 30.4687c-1.21738,-11.768 -1.62318,-33.681 18.2608,-25.9709 10.5507,4.46374 14.2028,30.8404 17.4492,40.9853 11.3623,38.1447 8.52169,-28.8114 10.9565,-32.8694 6.49272,-8.92749 22.7245,34.4926 25.1593,38.1447 17.855,29.2172 -18.6666,-62.4924 14.2028,-31.652 17.4491,15.826 24.3476,47.0722 55.188,34.8984"/>
 </g>
</svg>
